<svg xmlns="http://www.w3.org/2000/svg" xml:space="preserve" width="800" height="800" viewBox="0 0 95.333 95.333"><path d="M93.333 0H2C.896 0 0 .896 0 2v91.332c0 1.104.896 2 2 2h48.525V63.477H40.284c-.885 0-1.602-.717-1.602-1.602V48.961c0-.885.717-1.603 1.602-1.603h10.242v-8.913c0-11.744 7.395-19.332 18.839-19.332l10.188.016c.883.001 1.6.718 1.6 1.602v11.991c0 .885-.717 1.602-1.602 1.602l-6.863.003c-4.729 0-5.595 1.844-5.595 5.475v7.556h11.979c.425 0 .832.169 1.133.47.3.301.469.708.469 1.133l-.004 12.915c0 .885-.717 1.603-1.602 1.603H67.092v31.854h26.24c1.104 0 2-.896 2-2V2c.001-1.105-.894-2-1.999-2"/></svg>